<svg width="113" height="60" viewBox="0 0 113 60" fill="none" xmlns="http://www.w3.org/2000/svg">
<g clip-path="url(#clip0_31_31)">
<path d="M38.3577 5.88089V54.5603L82.7988 31.3786L38.3577 5.88089Z" fill="#867BA8"/>
<path d="M15.4031 30.1668H9.47735V28.6857H7.99487V16.8452H9.47735V15.3641H22.8093V16.8452H24.2897V22.7654H22.8093V24.2444H16.8835V30.1647H15.401L15.4031 30.1668ZM18.366 21.2864H19.8464V18.3263H16.8835V21.2864H18.366Z" fill="white"/>
<path d="M36.1413 30.1668H28.7351V28.6857H27.2547V25.7255H25.7722V21.2864H27.2547V18.3263H28.7351V16.8452H37.6237V18.3263H39.1062V19.8053H40.5887V27.2046H39.1062V28.6836H37.6237V30.1647H36.1433L36.1413 30.1668ZM33.1784 25.7255H34.6609V21.2864H31.698V25.7255H33.1784Z" fill="white"/>
<path d="M53.9184 22.7654V21.2843H52.4359V19.8032H50.9555V21.2843H49.4751V25.7235H50.9555V27.2046H52.4359V25.7235H53.9184V24.2424H55.3988V25.7235H56.8792V27.2046H55.3988V28.6836H53.9184V30.1647H45.0298V28.6836H43.5494V25.7235H42.0669V21.2843H43.5494V18.3242H45.0298V16.8431H53.9184V18.3242H55.3988V19.8032H56.8792V21.2843H55.3988V22.7654H53.9184Z" fill="white"/>
<path d="M70.2154 30.1667H67.2525V27.2066H65.7721V28.6856H64.2897V30.1667H59.8464V28.6856H58.366V18.3262H59.8464V16.8452H65.7721V21.2843H67.2525V18.3242H68.7329V16.8431H71.6958V19.8032H70.2154V25.7235H71.6958V30.1626H70.2154V30.1667Z" fill="white"/>
<path d="M83.5473 30.1668H74.6586V28.6857H73.1782V18.3263H74.6586V16.8452H85.0277V18.3263H86.5081V19.8053H82.0648V22.7654H85.0277V24.2444H82.0648V27.2046H86.5081V28.6836H85.0277V30.1647H83.5452L83.5473 30.1668Z" fill="white"/>
<path d="M95.3988 30.1668H92.436V28.6857H90.9556V19.8053H87.9927V18.3263H89.4731V16.8452H101.325V19.8053H98.3617V28.6857H96.8813V30.1668H95.4009H95.3988Z" fill="white"/>
<path d="M31.0552 46.4775H25.1294V44.9984H23.647V33.1579H25.1294V31.6768H38.4614V33.1579H39.9418V39.0782H38.4614V40.5593H32.5356V46.4795H31.0531L31.0552 46.4775ZM34.0181 37.5971H35.4985V34.637H32.5356V37.5971H34.0181Z" fill="white"/>
<path d="M51.7954 46.4775H42.9068V43.5173H41.4243V34.637H42.9068V33.1579H48.8326V42.0383H50.315V43.5173H53.2779V46.4775H51.7954Z" fill="white"/>
<path d="M68.0923 46.4775H63.649V44.9984H59.2057V46.4775H54.7625V43.5173H56.2429V39.0782H57.7253V36.1181H59.2057V34.637H60.6861V33.1579H65.1294V36.1181H66.6119V39.0782H68.0923V42.0383H69.5727V46.4775H68.0923ZM60.6841 42.0362V40.5572H59.2037V42.0362H60.6841Z" fill="white"/>
<path d="M79.9417 46.4775H75.4985V40.5572H74.0181V37.5971H72.5356V34.637H71.0552V33.1579H76.9809V34.637H78.4634V36.1181H81.4263V33.1579H85.8696V34.637H84.3892V37.5971H82.9088V40.5572H81.4263V46.4775H79.9459H79.9417Z" fill="white"/>
<path d="M56.5182 59.9996C40.8765 59.9996 25.2328 60.0017 9.59109 59.9996C4.92181 59.9996 1.21043 57.1058 0.233865 52.6749C0.0659204 51.9147 0.0120121 51.1151 0.00993875 50.3341C-0.00457502 36.8033 -0.000428227 23.2746 -0.000428227 9.74377C-0.000428227 3.98509 3.98464 0.00994918 9.74867 0.00787772C35.6785 0.00787772 61.6105 0.00373479 87.5404 0.00166332C92.842 0.00166332 98.1437 -0.00455108 103.445 0.00166332C108.95 0.00994918 112.987 4.03481 112.991 9.54698C113.002 23.2352 113.004 36.9214 112.991 50.6096C112.987 55.9561 108.871 59.9934 103.443 59.9954C87.8016 60.0017 72.1578 59.9975 56.5162 59.9975L56.5182 59.9996ZM56.9619 56.8903C65.9107 56.8903 74.8616 56.8903 83.8103 56.8903C89.8999 56.8903 95.9874 56.9048 102.077 56.8841C106.209 56.8696 109.717 53.8743 110.227 49.7914C110.458 47.9561 110.354 46.0773 110.36 44.2171C110.366 42.2492 109.309 41.2342 107.327 41.2383C105.401 41.2425 104.418 40.273 104.416 38.3569C104.414 35.6309 104.416 32.9027 104.416 30.1767C104.416 27.3968 104.416 24.6169 104.416 21.8391C104.416 19.6329 105.295 18.7609 107.524 18.7567C107.733 18.7567 107.945 18.7609 108.154 18.7567C109.527 18.7319 110.36 17.9033 110.366 16.5423C110.373 14.8375 110.408 13.1327 110.348 11.4299C110.319 10.6014 110.194 9.75205 109.948 8.96075C108.824 5.34604 105.647 3.15651 101.608 3.15651C80.1653 3.15651 58.7243 3.15651 37.2813 3.15651C28.882 3.15651 20.4847 3.14615 12.0854 3.16065C7.31036 3.16893 3.61143 6.77536 3.6052 11.4569C3.58654 23.7282 3.58447 35.9996 3.6052 48.271C3.6135 53.3709 7.20669 56.8903 12.3197 56.8903C27.2004 56.8903 42.0812 56.8903 56.9619 56.8903ZM107.231 32.1218C107.231 33.6381 107.215 35.1565 107.248 36.6728C107.254 36.9193 107.488 37.1617 107.617 37.404C107.752 37.1658 108.001 36.9297 108.003 36.6915C108.03 33.6568 108.03 30.6221 108.003 27.5894C108.003 27.3429 107.762 27.0985 107.636 26.8541C107.501 27.0923 107.254 27.3284 107.248 27.5708C107.213 29.0871 107.229 30.6055 107.229 32.1218H107.231ZM108.654 22.6614C108.639 22.0918 108.148 21.6174 107.58 21.665C106.976 21.7168 106.634 22.0731 106.599 22.6759C106.568 23.2456 107.057 23.7179 107.632 23.7137C108.206 23.7096 108.666 23.2352 108.654 22.6594V22.6614Z" fill="#867BA8"/>
</g>
<defs>
<clipPath id="clip0_31_31">
<rect width="113" height="60" fill="white"/>
</clipPath>
</defs>
</svg>
